TexturaLibera-Medium.sfdir
StartChar: exclam
Encoding: 33 33 1
Width: 300
Flags: MW
LayerCount: 4
Fore
SplineSet
125 50 m 29
 175 0 l 1053
125 550 m 5
 125 550 139 520 140 500 c 28
 148 383 150 200 150 200 c 5
 150 200 153 383 160 500 c 28
 162 539 175 600 175 600 c 13
 125 550 l 5
EndSplineSet
EndChar
StartChar: quotedbl
Encoding: 34 34 2
Width: 500
Flags: MW
LayerCount: 4
Fore
SplineSet
325 600 m 29
 375 550 l 5
 375 500 l 29
 300 425 l 1053
125 600 m 25
 175 550 l 1
 175 500 l 25
 100 425 l 1049
EndSplineSet
EndChar
StartChar: percent
Encoding: 37 37 5
Width: 700
Flags: MW
LayerCount: 4
Fore
SplineSet
500 200 m 25
 400 100 l 25
 400 -50 l 25
 500 -150 l 25
 600 -50 l 25
 600 100 l 25
 500 200 l 25
50 -150 m 25
 650 700 l 1049
200 700 m 25
 100 600 l 25
 100 450 l 25
 200 350 l 25
 300 450 l 25
 300 600 l 25
 200 700 l 25
EndSplineSet
EndChar
StartChar: hyphen
Encoding: 45 45 13
Width: 300
Flags: MW
LayerCount: 4
Fore
SplineSet
100 200 m 29
 200 225 l 1053
EndSplineSet
EndChar
StartChar: period
Encoding: 46 46 14
Width: 300
Flags: MW
LayerCount: 4
Fore
SplineSet
125 50 m 29
 175 0 l 1053
EndSplineSet
EndChar
StartChar: slash
Encoding: 47 47 15
Width: 500
Flags: MW
LayerCount: 4
Fore
SplineSet
50 -150 m 29
 450 700 l 1053
EndSplineSet
EndChar
StartChar: colon
Encoding: 58 58 26
Width: 300
Flags: MW
LayerCount: 4
Fore
SplineSet
125 350 m 29
 175 300 l 1053
125 50 m 29
 175 0 l 1053
EndSplineSet
EndChar
StartChar: question
Encoding: 63 63 31
Width: 400
Flags: MW
LayerCount: 4
Fore
SplineSet
100 450 m 29
 100 525 l 29
 175 600 l 29
 300 550 l 29
 300 400 l 29
 200 350 l 29
 200 200 l 1053
175 50 m 29
 225 0 l 1053
EndSplineSet
EndChar
StartChar: at
Encoding: 64 64 32
Width: 800
Flags: MW
LayerCount: 4
Fore
SplineSet
650 -50 m 1
 650 -50 550 -150 400 -150 c 11
 213 -150 100 38 100 225 c 27
 100 425 250 600 450 600 c 31
 595 600 700 470 700 325 c 27
 700 216 575 75 575 75 c 26
 525 25 l 1
 500 50 l 1
 500 425 l 1
 500 425 478 385 450 385 c 0
 422 385 400 425 400 425 c 9
 300 325 l 1
 300 100 l 17
 375 25 l 1
 500 150 l 1049
EndSplineSet
EndChar
StartChar: A
Encoding: 65 65 33
Width: 700
Flags: MW
AnchorPoint: "blwmark" 400 0 basechar 0
AnchorPoint: "abvmark" 450 700 basechar 0
LayerCount: 4
Fore
SplineSet
525 550 m 25
 475 600 l 25
 425 550 l 1049
200 300 m 1
 200 300 230 350 300 350 c 3
 427 350 500 250 501 250 c 1025
225 575 m 1
 225 575 235 600 275 600 c 11
 324 600 350 549 350 500 c 3
 350 263 176 75 176 75 c 1025
50 0 m 17
 50 0 81 50 150 50 c 3
 248 50 275 0 275 0 c 1025
500 575 m 1
 550 50 l 1
 600 0 l 9
 650 50 l 1049
EndSplineSet
EndChar
StartChar: J
Encoding: 74 74 42
Width: 450
Flags: MW
AnchorPoint: "abvmark" 250 700 basechar 0
LayerCount: 4
Fore
SplineSet
50 550 m 1
 50 550 84 600 124 600 c 3
 160 600 178 575 200 575 c 3
 228 575 250 600 251 600 c 1025
375 600 m 1
 325 550 l 1
 325 -75 l 1
 200 -200 l 1
 200 -200 173 -150 75 -150 c 3
 6 -150 -25 -200 -25 -200 c 1025
EndSplineSet
Layer: 2
SplineSet
200 550 m 5
 200 -125 l 1029
EndSplineSet
EndChar
StartChar: P
Encoding: 80 80 48
Width: 700
Flags: MW
AnchorPoint: "blwmark" 400 0 basechar 0
AnchorPoint: "abvmark" 400 700 basechar 0
LayerCount: 4
Fore
SplineSet
250 250 m 25
 250 250 306 300 350 300 c 27
 421 300 500 250 500 250 c 1
 600 350 l 1
 600 475 l 1
 375 600 l 1
 325 550 l 1
 325 50 l 1
 275 0 l 1
 275 0 248 50 150 50 c 3
 81 50 50 0 50 0 c 1033
50 550 m 1
 50 550 84 600 124 600 c 3
 160 600 178 575 200 575 c 3
 228 575 250 600 251 600 c 1025
EndSplineSet
Layer: 2
SplineSet
200 550 m 5
 200 75 l 1029
EndSplineSet
EndChar
StartChar: V
Encoding: 86 86 54
Width: 700
Flags: MW
AnchorPoint: "blwmark" 375 0 basechar 0
AnchorPoint: "abvmark" 450 700 basechar 0
LayerCount: 4
Fore
SplineSet
50 550 m 1
 50 550 84 600 124 600 c 3
 160 600 178 575 200 575 c 3
 228 575 250 600 251 600 c 1025
325 250 m 1
 325 550 l 1
 375 600 l 1025
100 100 m 17
 100 100 138 150 175 150 c 3
 374 150 375 0 375 0 c 1
 575 201 l 1
 575 415 l 1
 575 415 500 419 500 475 c 3
 500 530 600 600 600 600 c 1025
EndSplineSet
Layer: 2
SplineSet
200 550 m 5
 200 175 l 1029
EndSplineSet
EndChar
StartChar: W
Encoding: 87 87 55
Width: 1000
Flags: MW
AnchorPoint: "blwmark" 550 0 basechar 0
AnchorPoint: "abvmark" 575 700 basechar 0
LayerCount: 4
Fore
SplineSet
550 600 m 25
 600 550 l 1049
50 550 m 1
 50 550 84 600 124 600 c 3
 160 600 178 575 200 575 c 3
 228 575 250 600 251 600 c 1025
325 250 m 1
 325 550 l 1
 375 600 l 1025
100 100 m 17
 100 100 138 150 175 150 c 3
 374 150 375 0 375 0 c 1
 575 201 l 1
 575 575 l 1025
900 600 m 1
 900 600 800 530 800 475 c 3
 800 419 875 415 875 415 c 1
 875 201 l 1
 675 0 l 1
 575 201 l 1049
EndSplineSet
Layer: 2
SplineSet
200 550 m 5
 200 175 l 1029
EndSplineSet
EndChar
StartChar: X
Encoding: 88 88 56
Width: 600
Flags: MW
AnchorPoint: "abvmark" 300 700 basechar 0
LayerCount: 4
Fore
SplineSet
100 275 m 25
 100 275 156 325 200 325 c 27
 279 325 321 300 400 300 c 27
 444 300 500 350 500 350 c 1049
550 50 m 25
 500 0 l 17
 125 600 l 9
 75 550 l 1049
50 50 m 25
 100 0 l 17
 475 600 l 9
 525 550 l 1049
EndSplineSet
EndChar
StartChar: backslash
Encoding: 92 92 60
Width: 500
Flags: MW
LayerCount: 4
Fore
SplineSet
450 -150 m 29
 50 700 l 1049
EndSplineSet
EndChar
StartChar: asciicircum
Encoding: 94 94 62
Width: 600
Flags: MW
LayerCount: 4
Fore
SplineSet
100 300 m 25
 300 600 l 25
 500 300 l 1053
EndSplineSet
EndChar
StartChar: grave
Encoding: 96 96 64
Width: 400
Flags: MW
LayerCount: 4
Fore
SplineSet
125 700 m 17
 125 600 275 550 275 550 c 1049
EndSplineSet
EndChar
StartChar: a
Encoding: 97 97 65
Width: 400
Flags: MW
AnchorPoint: "blwmark" 200 0 basechar 0
AnchorPoint: "abvmark" 225 500 basechar 0
LayerCount: 4
Fore
SplineSet
125 250 m 17
 100 325 l 1
 175 400 l 1
 300 375 l 1
 300 25 l 1
 325 0 l 1
 375 50 l 1049
300 125 m 25
 175 0 l 1
 100 75 l 1
 100 175 l 1
 175 250 l 1
 175 250 193.964297096 225 250 225 c 3
 269.004218286 225 300 225 300 225 c 1033
EndSplineSet
Substitution2: "Stylistic alternates-1" ascript
EndChar
StartChar: f
Encoding: 102 102 70
Width: 300
Flags: MW
AnchorPoint: "abvmark" 175 700 basechar 0
LayerCount: 4
Fore
SplineSet
-125 -200 m 17
 -125 -200 -88 -150 -50 -150 c 8
 -19 -150 18 -200 50 -200 c 24
 78 -200 125 -150 125 -150 c 1
 125 550 l 1
 225 650 l 17
 225 650 256 600 300 600 c 24
 328 600 375 650 376 650 c 1033
50 400 m 25
 250 400 l 1049
EndSplineSet
EndChar
StartChar: n
Encoding: 110 110 78
Width: 400
Flags: MW
AnchorPoint: "blwmark" 200 0 basechar 0
AnchorPoint: "abvmark" 200 500 basechar 0
LayerCount: 4
Fore
SplineSet
275 50 m 25
 325 0 l 1049
300 25 m 1
 300 325 l 25
 225 400 l 1
 100 275 l 1049
75 50 m 25
 125 0 l 1049
125 350 m 25
 75 400 l 1049
100 375 m 9
 100 25 l 1025
EndSplineSet
Substitution2: "Stylistic alternates-1" n.alt
EndChar
StartChar: s
Encoding: 115 115 83
Width: 400
Flags: MW
AnchorPoint: "blwmark" 200 0 basechar 0
AnchorPoint: "abvmark" 200 500 basechar 0
LayerCount: 4
Fore
SplineSet
350 400 m 17
 350 400 303 350 275 350 c 24
 231 350 200 400 200 400 c 9
 100 300 l 1
 100 240 l 1
 300 160 l 1
 300 100 l 1
 200 0 l 17
 200 0 154 50 125 50 c 24
 96 50 50 0 50 0 c 1025
EndSplineSet
EndChar
StartChar: w
Encoding: 119 119 87
Width: 600
Flags: MW
AnchorPoint: "blwmark" 300 0 basechar 0
LayerCount: 4
Fore
SplineSet
325 350 m 25
 275 400 l 1049
300 375 m 25
 300 100 l 1
 400 0 l 25
 500 100 l 1
 500 375 l 25
 500 375 450 423 450 472 c 8
 450 514 504 550 505 550 c 1049
125 350 m 25
 75 400 l 1049
100 375 m 25
 100 100 l 1
 200 0 l 25
 300 100 l 1025
EndSplineSet
Substitution2: "Dotless forms-1" w.alt
EndChar
StartChar: x
Encoding: 120 120 88
Width: 400
Flags: MW
AnchorPoint: "blwmark" 200 0 basechar 0
AnchorPoint: "abvmark" 200 500 basechar 0
LayerCount: 4
Fore
SplineSet
75 175 m 25
 75 175 122 225 150 225 c 24
 194 225 206 175 250 175 c 24
 278 175 325 225 326 225 c 1049
200 300 m 9
 300 400 l 25
 350 350 l 1049
200 100 m 9
 300 0 l 1
 350 50 l 1049
50 350 m 25
 100 400 l 25
 200 300 l 25
 200 100 l 25
 100 0 l 25
 50 50 l 1049
EndSplineSet
EndChar
StartChar: y
Encoding: 121 121 89
Width: 400
Flags: MW
AnchorPoint: "abvmark" 200 500 basechar 0
LayerCount: 4
Fore
SplineSet
125 350 m 25
 75 400 l 1049
325 350 m 25
 275 400 l 1049
50 -200 m 17
 50 -200 87 -150 125 -150 c 8
 156 -150 193 -200 225 -200 c 24
 253 -200 300 -150 300 -150 c 1
 300 375 l 1025
300 100 m 9
 200 0 l 25
 100 100 l 1
 100 375 l 1049
EndSplineSet
EndChar
StartChar: bar
Encoding: 124 124 92
Width: 250
Flags: MW
LayerCount: 4
Fore
SplineSet
125 -150 m 25
 125 700 l 1053
EndSplineSet
EndChar
StartChar: asciitilde
Encoding: 126 126 94
Width: 700
Flags: MW
LayerCount: 4
Fore
SplineSet
100 275 m 17
 100 275 156 325 200 325 c 27
 317 325 383 300 500 300 c 27
 544 300 600 350 600 350 c 1033
EndSplineSet
EndChar
StartChar: brokenbar
Encoding: 166 166 205
Width: 250
Flags: MW
LayerCount: 4
Fore
SplineSet
125 -150 m 17
 125 200 l 1025
125 350 m 1
 125 700 l 1033
EndSplineSet
EndChar
StartChar: section
Encoding: 167 167 206
Width: 500
Flags: MW
LayerCount: 4
Fore
SplineSet
200 400 m 25
 100 300 l 25
 100 150 l 25
 400 50 l 25
 400 -100 l 25
 300 -200 l 25
 300 -200 220 -150 163 -150 c 27
 115 -150 50 -200 50 -200 c 1049
450 700 m 25
 450 700 394 650 350 650 c 27
 288 650 200 700 200 700 c 25
 100 600 l 25
 100 450 l 25
 400 350 l 25
 400 200 l 25
 300 100 l 1049
EndSplineSet
EndChar
StartChar: dieresis
Encoding: 168 168 101
Width: 400
Flags: MW
LayerCount: 4
Fore
SplineSet
275 600 m 29
 325 550 l 1053
75 600 m 29
 125 550 l 1053
EndSplineSet
EndChar
StartChar: copyright
Encoding: 169 169 221
Width: 700
Flags: MW
LayerCount: 4
Fore
SplineSet
379 410 m 1
 379 190 l 1025
310 465 m 1
 310 465 214 399 214 300 c 3
 214 208 267 135 366 135 c 3
 431 135 503 218 504 218 c 1025
310 406 m 1
 310 406 362 465 395 465 c 3
 430 465 416 438 448 438 c 3
 474 438 488 465 489 465 c 1025
50 350 m 0
 50 475 175 600 300 600 c 0
 550 600 650 500 650 250 c 0
 650 125 525 0 400 0 c 0
 150 0 50 100 50 350 c 0
EndSplineSet
Layer: 2
SplineSet
310 438 m 1
 310 190 l 1025
EndSplineSet
Colour: ff00
EndChar
StartChar: guillemotleft
Encoding: 171 171 215
Width: 550
Flags: MW
LayerCount: 4
Fore
SplineSet
475 325 m 21
 475 325 453.459960938 295.372070312 425 275 c 4
 330 207 300 200 300 200 c 5
 300 200 364 174 450 100 c 4
 471.075195312 81.8662109375 500 50 500 50 c 1037
225 325 m 17
 225 325 203.459960938 295.372070312 175 275 c 0
 80 207 50 200 50 200 c 1
 50 200 114 174 200 100 c 0
 221.074883505 81.8657979147 250 50 250 50 c 1033
EndSplineSet
EndChar
StartChar: guillemotright
Encoding: 187 187 216
Width: 550
Flags: MW
LayerCount: 4
Fore
SplineSet
325 325 m 21
 325 325 346.540039062 295.372070312 375 275 c 4
 470 207 500 200 500 200 c 5
 500 200 436 174 350 100 c 4
 328.924804688 81.8662109375 300 50 300 50 c 1037
75 325 m 17
 75 325 96.5400390625 295.372070312 125 275 c 0
 220 207 250 200 250 200 c 1
 250 200 186 174 100 100 c 0
 78.9248046875 81.8662109375 50 50 50 50 c 1033
EndSplineSet
EndChar
StartChar: germandbls
Encoding: 223 223 131
Width: 500
Flags: MW
AnchorPoint: "abvmark" 300 750 basechar 0
LayerCount: 4
Fore
SplineSet
150 400 m 5
 150 400 224 350 268 350 c 7
 342 350 350 400 350 400 c 5
 400 350 l 5
 250 200 l 5
 400 100 l 5
 400 -150 l 5
 400 -150 353.000180261 -200 325 -200 c 5
 259 -113 125 0 125 0 c 1029
-125 -200 m 21
 -125 -200 -88 -150 -50 -150 c 12
 -19 -150 18 -200 50 -200 c 28
 78 -200 125 -150 125 -150 c 5
 125 550 l 5
 225 650 l 21
 225 650 256 600 300 600 c 28
 328 600 375 650 376 650 c 1037
EndSplineSet
EndChar
StartChar: divide
Encoding: 247 247 224
Width: 600
Flags: MW
LayerCount: 4
Fore
SplineSet
275 125 m 25
 325 75 l 1049
100 300 m 25
 500 300 l 1049
275 525 m 25
 325 475 l 1049
EndSplineSet
EndChar
StartChar: hbar
Encoding: 295 295 964
Width: 400
Flags: MW
AnchorPoint: "abvmark" 200 700 basechar 0
AnchorPoint: "blwmark" 200 0 basechar 0
LayerCount: 4
Fore
SplineSet
275 50 m 29
 325 0 l 1053
75 50 m 29
 125 0 l 1053
75 625 m 29
 125 575 l 1053
100 600 m 13
 100 25 l 1053
300 25 m 29
 300 325 l 29
 225 400 l 5
 100 275 l 1053
200 475 m 29
 25 475 l 1053
EndSplineSet
EndChar
StartChar: dotlessi
Encoding: 305 305 97
Width: 200
Flags: MW
AnchorPoint: "blwmark" 100 0 basechar 0
AnchorPoint: "abvmark" 100 500 basechar 0
LayerCount: 4
Fore
SplineSet
75 50 m 29
 125 0 l 29
 175 50 l 1053
125 350 m 29
 75 400 l 29
 25 350 l 1053
100 375 m 13
 100 25 l 1029
EndSplineSet
EndChar
StartChar: lslash
Encoding: 322 322 291
Width: 200
Flags: MW
LayerCount: 4
Fore
SplineSet
175 400 m 25
 25 250 l 1049
75 50 m 25
 125 0 l 25
 175 50 l 1049
75 625 m 25
 125 575 l 1049
100 600 m 9
 100 25 l 1049
EndSplineSet
EndChar
StartChar: wynn
Encoding: 447 447 877
Width: 400
Flags: MW
AnchorPoint: "abvmark" 200 500 basechar 0
LayerCount: 4
Fore
SplineSet
50 -50 m 9
 300 200 l 1
 300 300 l 25
 200 400 l 1
 100 300 l 1049
75 400 m 25
 125 350 l 1049
100 375 m 1
 100 -150 l 1025
EndSplineSet
EndChar
StartChar: circumflex
Encoding: 710 710 100
Width: 400
Flags: MW
LayerCount: 4
Fore
SplineSet
300 525 m 25
 300 525 200 600 200 700 c 5
 200 550 100 525 100 525 c 1025
EndSplineSet
EndChar
StartChar: verticallinemod
Encoding: 712 712 887
Width: 400
Flags: MW
LayerCount: 4
Fore
SplineSet
200 700 m 9
 200 525 l 1025
EndSplineSet
EndChar
StartChar: dotaccent
Encoding: 729 729 269
Width: 400
Flags: MW
LayerCount: 4
Fore
SplineSet
175 600 m 25
 225 550 l 1049
EndSplineSet
EndChar
StartChar: ring
Encoding: 730 730 184
Width: 400
Flags: MW
LayerCount: 4
Fore
SplineSet
100 650 m 4
 100 710 115 725 175 725 c 4
 250 725 300 675 300 600 c 4
 300 540 285 525 225 525 c 4
 150 525 100 575 100 650 c 4
EndSplineSet
EndChar
StartChar: tilde
Encoding: 732 732 168
Width: 400
Flags: MW
LayerCount: 4
Fore
SplineSet
50 525 m 17
 50 525 90 575 125 575 c 27
 184 575 216 550 275 550 c 27
 310 550 350 600 350 600 c 1033
EndSplineSet
EndChar
StartChar: ringbelow
Encoding: 755 755 886
Width: 400
Flags: MW
LayerCount: 4
Fore
SplineSet
100 -150 m 4
 100 -90 115 -75 175 -75 c 4
 250 -75 300 -125 300 -200 c 4
 300 -260 285 -275 225 -275 c 4
 150 -275 100 -225 100 -150 c 4
EndSplineSet
EndChar
StartChar: quotesinglbase
Encoding: 8218 8218 256
Width: 300
VWidth: 450
Flags: MW
LayerCount: 4
Fore
SplineSet
125 50 m 29
 175 0 l 5
 175 -50 l 29
 100 -125 l 1053
EndSplineSet
EndChar
StartChar: quotereversed
Encoding: 8219 8219 928
Width: 300
Flags: MW
LayerCount: 4
Layer: 3
SplineSet
175 600 m 25
 125 550 l 1
 125 500 l 25
 200 425 l 1049
EndSplineSet
EndChar
StartChar: quotedblleft
Encoding: 8220 8220 251
Width: 500
Flags: MW
LayerCount: 4
Fore
SplineSet
175 425 m 29
 125 475 l 5
 125 525 l 29
 200 600 l 1053
375 425 m 29
 325 475 l 5
 325 525 l 29
 400 600 l 1053
EndSplineSet
EndChar
StartChar: perthousand
Encoding: 8240 8240 244
Width: 1050
Flags: MW
LayerCount: 4
Fore
SplineSet
850 200 m 29
 750 100 l 29
 750 -50 l 29
 850 -150 l 29
 950 -50 l 29
 950 100 l 29
 850 200 l 29
500 200 m 25
 400 100 l 25
 400 -50 l 25
 500 -150 l 25
 600 -50 l 25
 600 100 l 25
 500 200 l 25
50 -150 m 25
 650 700 l 1049
200 700 m 25
 100 600 l 25
 100 450 l 25
 200 350 l 25
 300 450 l 25
 300 600 l 25
 200 700 l 25
EndSplineSet
EndChar
StartChar: guilsinglleft
Encoding: 8249 8249 242
Width: 300
Flags: MW
LayerCount: 4
Fore
SplineSet
225 325 m 21
 225 325 203.459960938 295.372070312 175 275 c 4
 80 207 50 200 50 200 c 5
 50 200 114 174 200 100 c 4
 221.074883505 81.8657979147 250 50 250 50 c 1037
EndSplineSet
EndChar
StartChar: guilsinglright
Encoding: 8250 8250 243
Width: 300
Flags: MW
LayerCount: 4
Fore
SplineSet
75 325 m 21
 75 325 96.5400390625 295.372070312 125 275 c 4
 220 207 250 200 250 200 c 5
 250 200 186 174 100 100 c 4
 78.9248046875 81.8662109375 50 50 50 50 c 1037
EndSplineSet
EndChar
StartChar: bracketquillright
Encoding: 8262 8262 917
Width: 300
Flags: MW
LayerCount: 4
Fore
SplineSet
50 300 m 25
 200 300 l 1049
50 700 m 25
 200 700 l 25
 200 -150 l 25
 50 -150 l 1033
EndSplineSet
EndChar
StartChar: et
Encoding: 8266 8266 960
Width: 400
Flags: MW
LayerCount: 4
Fore
SplineSet
75 400 m 1
 75 400 137 350 225 350 c 3
 279 350 350 400 350 400 c 1
 350 400 150 176 150 -100 c 7
 150 -132 150 -150 150 -150 c 1025
EndSplineSet
EndChar
StartChar: Euro
Encoding: 8364 8364 264
Width: 550
Flags: MW
LayerCount: 4
Fore
SplineSet
50 225 m 25
 350 225 l 1049
50 375 m 25
 400 375 l 1053
475 525 m 9
 350 600 l 25
 150 400 l 25
 150 100 l 25
 350 0 l 25
 500 150 l 1041
EndSplineSet
EndChar
StartChar: logicaland
Encoding: 8743 8743 952
Width: 600
Flags: MW
LayerCount: 4
Fore
SplineSet
100 0 m 25
 300 400 l 25
 500 0 l 1049
EndSplineSet
EndChar
StartChar: therefore
Encoding: 8756 8756 896
Width: 600
Flags: MW
LayerCount: 4
Fore
SplineSet
425 50 m 25
 475 0 l 1049
275 350 m 25
 325 300 l 1049
125 50 m 25
 175 0 l 1049
EndSplineSet
EndChar
StartChar: proportion
Encoding: 8759 8759 898
Width: 600
Flags: MW
LayerCount: 4
Fore
SplineSet
425 350 m 25
 475 300 l 1049
425 50 m 25
 475 0 l 1049
125 350 m 25
 175 300 l 1049
125 50 m 25
 175 0 l 1049
EndSplineSet
EndChar
StartChar: luslst
Encoding: 11788 11788 902
Width: 300
Flags: MW
LayerCount: 4
Fore
SplineSet
50 700 m 25
 250 450 l 1049
EndSplineSet
EndChar
StartChar: barquillleft
Encoding: 11808 11808 920
Width: 300
Flags: MW
LayerCount: 4
Fore
SplineSet
250 300 m 25
 100 300 l 1049
100 700 m 25
 100 -150 l 1049
EndSplineSet
EndChar
StartChar: brackettopleft
Encoding: 11810 11810 922
Width: 300
Flags: MW
LayerCount: 4
Fore
SplineSet
250 700 m 25
 100 700 l 17
 100 300 l 1025
EndSplineSet
EndChar
StartChar: brackettopright
Encoding: 11811 11811 923
Width: 300
Flags: MW
LayerCount: 4
Fore
SplineSet
50 700 m 25
 200 700 l 17
 200 300 l 1025
EndSplineSet
EndChar
StartChar: bracketbottomleft
Encoding: 11812 11812 924
Width: 300
Flags: MW
LayerCount: 4
Fore
SplineSet
100 300 m 1
 100 -150 l 9
 250 -150 l 1033
EndSplineSet
EndChar
StartChar: bracketbottomright
Encoding: 11813 11813 925
Width: 300
Flags: MW
LayerCount: 4
Fore
SplineSet
200 300 m 1
 200 -150 l 9
 50 -150 l 1033
EndSplineSet
EndChar
StartChar: Ubracketright
Encoding: 11815 11815 913
Width: 500
Flags: MW
LayerCount: 4
Fore
SplineSet
50 400 m 1
 200 400 l 26
 310 400 400 310 400 200 c 27
 400 90 310 0 200 0 c 26
 50 0 l 1025
EndSplineSet
EndChar
StartChar: kbar
Encoding: 42817 42817 862
Width: 400
Flags: MW
AnchorPoint: "abvmark" 200 700 basechar 0
AnchorPoint: "blwmark" 200 0 basechar 0
LayerCount: 4
Fore
SplineSet
200 475 m 25
 25 475 l 1049
275 425 m 25
 325 375 l 1049
75 625 m 25
 125 575 l 1049
75 625 m 25
 125 575 l 1049
100 200 m 1
 300 350 l 9
 300 400 l 1049
200 275 m 1
 300 200 l 1
 300 25 l 1025
275 50 m 25
 325 0 l 1049
75 50 m 25
 125 0 l 1049
75 625 m 25
 125 575 l 1049
100 600 m 9
 100 25 l 1049
EndSplineSet
EndChar
StartChar: lbar
Encoding: 42825 42825 865
Width: 200
Flags: MW
AnchorPoint: "abvmark" 100 700 basechar 0
AnchorPoint: "blwmark" 100 0 basechar 0
LayerCount: 4
Fore
SplineSet
75 50 m 25
 125 0 l 25
 175 50 l 1049
75 625 m 25
 125 575 l 1049
100 600 m 9
 100 25 l 1049
175 475 m 25
 25 475 l 1049
EndSplineSet
EndChar
StartChar: obiit
Encoding: 42827 42827 866
Width: 400
Flags: MW
LayerCount: 4
Fore
SplineSet
25 225 m 25
 375 225 l 1049
200 400 m 25
 100 300 l 25
 100 100 l 25
 200 0 l 25
 300 100 l 25
 300 300 l 25
 200 400 l 25
EndSplineSet
EndChar
StartChar: oeloop
Encoding: 42829 42829 867
Width: 550
Flags: MW
AnchorPoint: "abvmark" 300 500 basechar 0
AnchorPoint: "blwmark" 300 0 basechar 0
LayerCount: 4
Fore
SplineSet
300 100 m 25
 300 300 l 25
 400 400 l 25
 500 300 l 1
 300 100 l 25
 200 0 l 1
 100 100 l 25
 100 300 l 25
 200 400 l 25
 300 300 l 1041
EndSplineSet
EndChar
StartChar: o_o
Encoding: 42831 42831 669
Width: 600
Flags: MW
AnchorPoint: "blwmark" 300 0 basechar 0
AnchorPoint: "abvmark" 300 500 basechar 0
LayerCount: 4
Fore
SplineSet
400 400 m 25
 300 300 l 25
 300 100 l 25
 400 0 l 25
 500 100 l 25
 500 300 l 25
 400 400 l 25
200 400 m 25
 100 300 l 25
 100 100 l 25
 200 0 l 25
 300 100 l 25
 300 300 l 25
 200 400 l 25
EndSplineSet
LCarets2: 1 300 
Ligature2: "Historic ligatures-1" o o
EndChar
StartChar: pflourish
Encoding: 42835 42835 869
Width: 500
Flags: MW
AnchorPoint: "abvmark" 300 500 basechar 0
LayerCount: 4
Fore
SplineSet
200 300 m 29
 300 400 l 5
 400 300 l 29
 400 100 l 5
 300 0 l 5
 300 0 232 100 25 100 c 5
 25 100 75 44 75 0 c 7
 75 -132 25 -150 25 -150 c 1037
175 400 m 29
 225 350 l 1053
200 375 m 5
 200 -150 l 1029
EndSplineSet
EndChar
StartChar: qslash
Encoding: 42841 42841 872
Width: 400
Flags: MW
AnchorPoint: "abvmark" 225 500 basechar 0
LayerCount: 4
Fore
SplineSet
300 100 m 9
 200 0 l 25
 100 100 l 25
 100 300 l 25
 200 400 l 1
 200 400 222 360 250 360 c 24
 278 360 300 400 300 400 c 9
 300 -150 l 1049
375 50 m 25
 175 -150 l 1049
EndSplineSet
EndChar
StartChar: zvisigoth
Encoding: 42851 42851 839
Width: 350
Flags: MW
AnchorPoint: "abvmark" 200 500 basechar 0
LayerCount: 4
Fore
SplineSet
300 300 m 9
 200 400 l 25
 100 300 l 1
 100 200 l 25
 200 150 l 25
 100 50 l 1
 250 0 l 1
 250 -150 l 1
 250 -150 203 -200 175 -200 c 0
 143 -200 119 -150 75 -150 c 16
 37 -150 0 -200 0 -200 c 1025
EndSplineSet
EndChar
StartChar: Vend
Encoding: 42856 42856 971
Width: 700
Flags: W
AnchorPoint: "abvmark" 400 700 basechar 0
LayerCount: 4
Fore
SplineSet
250 0 m 1
 600 350 l 1
 600 550 l 1
 550 600 l 1025
375 600 m 1
 325 550 l 1
 325 -150 l 1
 275 -200 l 1
 275 -200 248 -150 150 -150 c 3
 81 -150 50 -200 50 -200 c 1033
50 550 m 1
 50 550 84 600 124 600 c 3
 160 600 178 575 200 575 c 3
 228 575 250 600 251 600 c 1025
EndSplineSet
Layer: 2
SplineSet
200 550 m 5
 200 -125 l 1029
EndSplineSet
EndChar
StartChar: num
Encoding: 42868 42868 597
Width: 625
Flags: MW
LayerCount: 4
Fore
SplineSet
425 225 m 1
 475 200 l 1
 475 200 475 139 475 100 c 27
 475 3 325 -150 325 -150 c 1025
575 50 m 17
 575 50 556 0 500 0 c 3
 406 0 375 50 375 50 c 1
 325 0 l 25
 275 50 l 1025
300 25 m 1
 300 325 l 25
 225 400 l 1
 100 275 l 1049
75 50 m 25
 125 0 l 1049
125 350 m 25
 75 400 l 1049
100 375 m 9
 100 25 l 1025
EndSplineSet
EndChar
StartChar: hbar_longs
Encoding: 59335 59335 963
Width: 425
Flags: MW
LayerCount: 4
Fore
SplineSet
300 50 m 29
 350 0 l 1053
325 25 m 29
 325 325 l 29
 250 400 l 5
 125 275 l 1053
-125 -200 m 21
 -125 -200 -88 -150 -50 -150 c 12
 -19 -150 18 -200 50 -200 c 28
 78 -200 125 -150 125 -150 c 5
 125 550 l 5
 225 650 l 21
 225 650 256 600 300 600 c 28
 328 600 375 650 376 650 c 1037
200 475 m 29
 25 475 l 1053
EndSplineSet
LCarets2: 1 225 
Ligature2: "Historic ligatures-1" hbar longs
EndChar
StartChar: q_rrotunda
Encoding: 59571 59571 965
Width: 600
Flags: MW
LayerCount: 4
Fore
SplineSet
300 100 m 9
 200 0 l 25
 100 100 l 25
 100 300 l 25
 200 400 l 1
 200 400 222 360 250 360 c 24
 278 360 300 400 300 400 c 9
 300 -150 l 1049
550 50 m 29
 500 0 l 5
 400 200 l 29
 500 300 l 5
 400 400 l 5
 350 350 l 1053
EndSplineSet
LCarets2: 1 350 
Ligature2: "Ligatures-1" q rrotunda
EndChar
StartChar: q_etfin
Encoding: 59583 59583 966
Width: 600
Flags: MW
LayerCount: 4
Fore
SplineSet
300 100 m 9
 200 0 l 25
 100 100 l 25
 100 300 l 25
 200 400 l 1
 200 400 222 360 250 360 c 24
 278 360 300 400 300 400 c 9
 300 -150 l 1049
300 325 m 29
 375 400 l 5
 500 300 l 5
 350 150 l 5
 500 100 l 5
 500 0 l 5
 250 -200 l 1029
EndSplineSet
LCarets2: 1 300 
Ligature2: "Ligatures-1" q etfin
EndChar
StartChar: q_v
Encoding: 60113 60113 967
Width: 600
Flags: MW
LayerCount: 4
Fore
SplineSet
300 100 m 9
 200 0 l 25
 100 100 l 25
 100 300 l 25
 200 400 l 1
 200 400 222 360 250 360 c 24
 278 360 300 400 300 400 c 9
 300 -150 l 1049
300 100 m 1
 400 0 l 25
 500 100 l 1
 500 375 l 25
 500 375 450 423 450 472 c 8
 450 514 504 550 505 550 c 1049
EndSplineSet
LCarets2: 1 300 
Ligature2: "Ligatures-1" q v
EndChar
StartChar: longs_longs
Encoding: 60326 60326 327
Width: 500
GlyphClass: 3
Flags: MW
LayerCount: 4
Fore
SplineSet
125 -150 m 1
 156 -150 218 -200 250 -200 c 0
 278 -200 325 -150 325 -150 c 1
 325 550 l 1
 425 650 l 17
 425 650 456 600 500 600 c 24
 528 600 575 650 576 650 c 1033
-125 -200 m 17
 -125 -200 -88 -150 -50 -150 c 8
 -19 -150 18 -200 50 -200 c 24
 78 -200 125 -150 125 -150 c 1
 125 550 l 1
 225 650 l 1
 225 650 281 550 325 550 c 1025
EndSplineSet
LCarets2: 1 300 
Ligature2: "Ligatures-1" longs longs
EndChar
StartChar: longs_longs_l
Encoding: 60328 60328 332
Width: 650
GlyphClass: 3
Flags: MW
LayerCount: 4
Fore
SplineSet
125 -150 m 1
 156 -150 218 -200 250 -200 c 0
 278 -200 325 -150 325 -150 c 1
 325 550 l 1
 425 650 l 17
 425 650 465 625 525 625 c 1
 575 575 l 1025
-125 -200 m 17
 -125 -200 -88 -150 -50 -150 c 8
 -19 -150 18 -200 50 -200 c 24
 78 -200 125 -150 125 -150 c 1
 125 550 l 1
 225 650 l 1
 225 650 281 550 325 550 c 1025
525 50 m 25
 575 0 l 25
 625 50 l 1049
550 600 m 9
 550 25 l 1049
EndSplineSet
LCarets2: 2 300 500 
Ligature2: "Ligatures-1" longs longs l
EndChar
StartChar: c_k
Encoding: 61124 61124 439
Width: 650
Flags: MW
LayerCount: 4
Fore
SplineSet
300 300 m 9
 200 400 l 25
 100 300 l 25
 100 100 l 25
 200 0 l 25
 300 100 l 1041
525 425 m 29
 575 375 l 1053
325 625 m 29
 375 575 l 1053
325 625 m 29
 375 575 l 1053
350 200 m 5
 550 350 l 13
 550 400 l 1053
450 275 m 5
 550 200 l 5
 550 25 l 1029
525 50 m 29
 575 0 l 1053
325 50 m 29
 375 0 l 1053
325 625 m 29
 375 575 l 1053
350 600 m 13
 350 25 l 1053
EndSplineSet
LCarets2: 1 350 
Ligature2: "Ligatures-1" c k
EndChar
StartChar: c_t
Encoding: 61125 61125 335
Width: 675
Flags: MW
LayerCount: 4
Fore
SplineSet
300 100 m 13
 200 0 l 29
 100 100 l 29
 100 300 l 5
 200 400 l 21
 200 400 270.984497056 350 400 350 c 7
 553 350 600 400 600 400 c 1037
475 550 m 5
 475 50 l 5
 525 0 l 5
 625 100 l 1029
EndSplineSet
LCarets2: 1 350 
Ligature2: "Ligatures-1" c t
EndChar
StartChar: e_y
Encoding: 61127 61127 351
Width: 600
GlyphClass: 3
Flags: MW
LayerCount: 4
Fore
SplineSet
300 100 m 9
 200 0 l 25
 100 100 l 25
 100 300 l 25
 200 400 l 25
 300 300 l 1
 300 300 l 1
 100 100 l 1029
525 350 m 25
 475 400 l 1049
250 -200 m 17
 250 -200 287 -150 325 -150 c 8
 356 -150 393 -200 425 -200 c 24
 453 -200 500 -150 500 -150 c 1
 500 375 l 1025
500 100 m 9
 400 0 l 25
 300 100 l 1
 300 300 l 1049
EndSplineSet
LCarets2: 1 300 
Ligature2: "Historic ligatures-1" e y
EndChar
StartChar: f_t
Encoding: 61131 61131 326
Width: 525
GlyphClass: 3
Flags: MW
LayerCount: 4
Fore
SplineSet
-125 -200 m 17
 -125 -200 -88 -150 -50 -150 c 8
 -19 -150 18 -200 50 -200 c 24
 78 -200 125 -150 125 -150 c 1
 125 550 l 1
 225 650 l 1
 225 650 281 550 325 550 c 1
 325 50 l 1
 375 0 l 1
 475 100 l 1025
50 400 m 25
 450 400 l 1053
EndSplineSet
LCarets2: 1 300 
Ligature2: "Ligatures-1" f t
EndChar
StartChar: f_t_y
Encoding: 61136 61136 356
Width: 850
GlyphClass: 3
Flags: MW
LayerCount: 4
Fore
SplineSet
775 350 m 29
 725 400 l 1053
500 -200 m 21
 500 -200 537 -150 575 -150 c 12
 606 -150 643 -200 675 -200 c 28
 703 -200 750 -150 750 -150 c 5
 750 375 l 1029
750 100 m 13
 650 0 l 29
 550 100 l 5
 550 375 l 1053
-125 -200 m 1
 -125 -200 -88 -150 -50 -150 c 8
 -19 -150 18 -200 50 -200 c 24
 78 -200 125 -150 125 -150 c 1
 125 550 l 1
 225 650 l 1
 225 650 281 550 325 550 c 1
 325 50 l 1
 375 0 l 1
 475 100 l 1025
50 400 m 1
 525 400 l 29
 575 350 l 1029
EndSplineSet
LCarets2: 2 300 500 
Ligature2: "Ligatures-1" f t y
EndChar
StartChar: t_t
Encoding: 61145 61145 730
Width: 525
Flags: MW
LayerCount: 4
Fore
SplineSet
325 550 m 1
 325 50 l 1
 375 0 l 1
 475 100 l 1025
50 400 m 1
 450 400 l 1041
125 550 m 1
 125 50 l 1
 175 0 l 1
 275 100 l 1025
EndSplineSet
LCarets2: 1 300 
Ligature2: "Ligatures-1" t t
EndChar
StartChar: t_y
Encoding: 61147 61147 731
Width: 650
Flags: MW
LayerCount: 4
Fore
SplineSet
575 350 m 25
 525 400 l 1049
300 -200 m 17
 300 -200 337 -150 375 -150 c 8
 406 -150 443 -200 475 -200 c 24
 503 -200 550 -150 550 -150 c 1
 550 375 l 1025
550 100 m 9
 450 0 l 25
 350 100 l 1
 350 375 l 1049
125 550 m 1
 125 50 l 1
 175 0 l 1
 275 100 l 1025
50 400 m 1
 325 400 l 1
 375 350 l 1025
EndSplineSet
LCarets2: 1 300 
Ligature2: "Ligatures-1" t y
EndChar
StartChar: a_f
Encoding: 61347 61347 337
Width: 475
GlyphClass: 3
Flags: MW
LayerCount: 4
Fore
SplineSet
300 125 m 9
 175 0 l 1
 100 75 l 1
 100 175 l 1
 175 250 l 1
 175 250 193.964297096 225 250 225 c 3
 269.004218286 225 300 225 300 225 c 1033
50 -200 m 17
 50 -200 87 -150 125 -150 c 8
 156 -150 193 -200 225 -200 c 24
 253 -200 300 -150 300 -150 c 1
 300 550 l 1
 400 650 l 17
 400 650 431 600 475 600 c 24
 503 600 550 650 551 650 c 1033
425 400 m 1
 175 400 l 17
 100 325 l 1
 125 250 l 1033
EndSplineSet
LCarets2: 1 300 
Ligature2: "Historic ligatures-1" a f
EndChar
StartChar: a_g
Encoding: 61349 61349 338
Width: 600
GlyphClass: 3
Flags: MW
LayerCount: 4
Fore
SplineSet
125 250 m 17
 100 325 l 1
 175 400 l 1
 300 375 l 1
 300 125 l 9
 175 0 l 1
 100 75 l 1
 100 175 l 1
 175 250 l 1
 175 250 193.964297096 225 250 225 c 3
 269.004218286 225 300 225 300 225 c 1033
250 -200 m 17
 250 -200 287 -150 325 -150 c 8
 356 -150 393 -200 425 -200 c 24
 453 -200 500 -150 500 -150 c 9
 500 400 l 1
 500 400 478 360 450 360 c 24
 422 360 400 400 400 400 c 1
 300 300 l 25
 300 100 l 25
 400 0 l 25
 500 100 l 1041
EndSplineSet
LCarets2: 1 300 
Ligature2: "Historic ligatures-1" a g
EndChar
StartChar: a_l
Encoding: 61350 61350 339
Width: 400
GlyphClass: 3
Flags: MW
LayerCount: 4
Fore
SplineSet
125 250 m 21
 100 325 l 5
 175 400 l 5
 300 375 l 5
 300 125 l 13
 175 0 l 5
 100 75 l 5
 100 175 l 5
 175 250 l 5
 175 250 193.964297096 225 250 225 c 7
 269.004218286 225 300 225 300 225 c 1037
275 50 m 25
 325 0 l 25
 375 50 l 1049
275 625 m 25
 325 575 l 1049
300 600 m 9
 300 25 l 1049
EndSplineSet
LCarets2: 1 200 
Ligature2: "Historic ligatures-1" a l
EndChar
StartChar: a_r
Encoding: 61354 61354 343
Width: 500
GlyphClass: 3
Flags: MW
LayerCount: 4
Fore
SplineSet
125 250 m 17
 100 325 l 1
 175 400 l 1
 300 375 l 1
 300 125 l 9
 175 0 l 1
 100 75 l 1
 100 175 l 1
 175 250 l 1
 175 250 193.964297096 225 250 225 c 3
 269.004218286 225 300 225 300 225 c 1033
375 50 m 25
 325 0 l 1
 300 25 l 1
 300 375 l 1025
450 350 m 25
 400 400 l 25
 300 300 l 1049
EndSplineSet
LCarets2: 1 300 
Ligature2: "Historic ligatures-1" a r
EndChar
StartChar: m.alt
Encoding: 61987 61987 588
Width: 600
Flags: MW
AnchorPoint: "abvmark" 300 500 basechar 0
LayerCount: 4
Fore
SplineSet
275 50 m 25
 325 0 l 1049
300 25 m 1
 300 325 l 25
 225 400 l 1
 100 275 l 1049
75 50 m 25
 125 0 l 1049
125 350 m 25
 75 400 l 1049
100 375 m 9
 100 25 l 1025
450 -150 m 25
 500 -100 l 1
 500 325 l 9
 425 400 l 1
 300 275 l 1049
EndSplineSet
EndChar
StartChar: n.alt
Encoding: 61992 61992 598
Width: 400
Flags: MW
AnchorPoint: "abvmark" 200 500 basechar 0
LayerCount: 4
Fore
SplineSet
75 50 m 25
 125 0 l 1049
125 350 m 25
 75 400 l 1049
100 375 m 9
 100 25 l 1025
250 -150 m 25
 300 -100 l 1
 300 325 l 9
 225 400 l 1
 100 275 l 1049
EndSplineSet
EndChar
StartChar: l_l
Encoding: 62713 62713 575
Width: 400
Flags: MW
LayerCount: 4
Fore
SplineSet
275 50 m 25
 325 0 l 25
 375 50 l 1049
275 625 m 25
 325 575 l 1049
300 600 m 9
 300 25 l 1049
75 50 m 25
 125 0 l 25
 175 50 l 1049
75 625 m 25
 125 575 l 1049
100 600 m 9
 100 25 l 1049
EndSplineSet
LCarets2: 1 200 
Ligature2: "Ligatures-1" l l
EndChar
StartChar: longs_j
Encoding: 62715 62715 329
Width: 450
GlyphClass: 3
Flags: MW
LayerCount: 4
Fore
SplineSet
350 375 m 1
 350 -100 l 9
 300 -150 l 1049
325 400 m 25
 375 350 l 1025
-125 -200 m 1
 -125 -200 -88 -150 -50 -150 c 8
 -6 -150 6 -200 50 -200 c 24
 85 -200 125 -150 125 -150 c 1
 125 550 l 1
 225 650 l 1
 225 650 300 600 400 600 c 9
 350 550 l 1025
EndSplineSet
LCarets2: 1 300 
Ligature2: "Ligatures-1" longs j
EndChar
StartChar: f_i
Encoding: 64257 64257 321
Width: 450
Flags: MW
LayerCount: 4
Fore
SplineSet
350 375 m 9
 350 25 l 1025
325 50 m 25
 375 0 l 25
 425 50 l 1049
50 400 m 1
 325 400 l 25
 375 350 l 1025
-125 -200 m 1
 -125 -200 -88 -150 -50 -150 c 8
 -6 -150 6 -200 50 -200 c 24
 85 -200 125 -150 125 -150 c 1
 125 550 l 1
 225 650 l 1
 225 650 300 600 400 600 c 9
 350 550 l 1025
EndSplineSet
LCarets2: 1 300 
Ligature2: "Ligatures-1" f i
EndChar
